<svg width="14" height="12" viewBox="0 0 14 12" fill="none" xmlns="http://www.w3.org/2000/svg">
<path d="M2.48461 5.32174H2.79033C6.19931 5.32174 9.60829 5.32174 13.0173 5.32174C13.1311 5.32174 13.2449 5.31807 13.3581 5.32646C13.7346 5.35477 14.0026 5.64738 14 6.02231C13.9979 6.39619 13.7273 6.68355 13.3482 6.70924C13.2349 6.71711 13.1211 6.71344 13.0073 6.71344C9.59833 6.71344 6.18935 6.71344 2.78036 6.71344C2.67968 6.71344 2.57953 6.71344 2.47884 6.71344C2.45472 6.74857 2.43113 6.78318 2.40701 6.81831C2.48986 6.86656 2.58687 6.89959 2.65294 6.96514C3.77458 8.08102 4.89675 9.19689 6.00581 10.3254C6.14268 10.4648 6.2507 10.6704 6.28793 10.8618C6.34299 11.1418 6.19669 11.3746 5.94394 11.5125C5.69381 11.6489 5.43844 11.6353 5.20142 11.4711C5.1301 11.4218 5.06927 11.3573 5.0074 11.2955C3.44947 9.73805 1.89154 8.18012 0.334661 6.62167C-0.0895608 6.19745 -0.0927071 5.8414 0.323649 5.42399C1.90517 3.84089 3.48827 2.25884 5.0698 0.67522C5.2827 0.462322 5.52286 0.350629 5.827 0.447115C6.09286 0.53154 6.25332 0.715597 6.30891 0.984603C6.36816 1.27144 6.23864 1.48906 6.042 1.68517C4.91563 2.80892 3.79189 3.93528 2.665 5.0585C2.59788 5.12562 2.51188 5.17439 2.4348 5.23207C2.45158 5.26143 2.46783 5.29132 2.48461 5.32069V5.32174Z" fill="black"/>
</svg>
