<svg width="17" height="12" viewBox="0 0 17 12" fill="none" xmlns="http://www.w3.org/2000/svg">
<path d="M1.81164 0.47639C2.01809 0.452101 2.22454 0.39138 2.431 0.39138C6.66932 0.39138 10.9076 0.39138 15.1581 0.39138C15.3646 0.39138 15.571 0.439957 15.8382 0.47639C15.741 0.585687 15.6925 0.646408 15.6317 0.694985C13.5065 2.82022 11.3934 4.94545 9.26818 7.08283C8.94028 7.41073 8.66097 7.41073 8.33307 7.08283C6.20784 4.9576 4.08261 2.83236 1.95737 0.707129C1.9088 0.658553 1.84807 0.609976 1.78735 0.573543L1.81164 0.47639Z" fill="#333333"/>
<path d="M1.76294 11.2968C3.37812 9.6938 4.94472 8.15149 6.51132 6.58489C6.87565 6.94922 7.26426 7.33783 7.65287 7.72644C8.35724 8.43081 9.19519 8.44295 9.9117 7.72644C10.3003 7.33783 10.7011 6.94922 11.0654 6.58489C12.632 8.13935 14.1986 9.6938 15.8259 11.2968C15.5345 11.3333 15.2916 11.3818 15.0487 11.3818C12.1219 11.3818 9.20733 11.3818 6.28058 11.3818C5.01758 11.3818 3.75459 11.3818 2.49159 11.3818C2.26085 11.3818 2.03011 11.3333 1.76294 11.2968Z" fill="#333333"/>
<path d="M1.07079 10.5317C1.0465 10.386 0.985777 10.1917 0.985777 10.0095C0.973633 7.2649 0.973633 4.50817 0.973633 1.76358C0.973633 1.58142 1.03435 1.38711 1.07079 1.20495C2.66168 2.78369 4.22828 4.326 5.78273 5.86832C4.22828 7.41063 2.64953 8.96509 1.07079 10.5317Z" fill="#333333"/>
<path d="M11.7941 5.86831C13.3486 4.32599 14.9152 2.77154 16.5061 1.19279C16.5425 1.37495 16.6032 1.56926 16.6032 1.75142C16.6032 4.50816 16.6032 7.26489 16.6032 10.0216C16.6032 10.2038 16.5425 10.3859 16.5061 10.5438C14.9273 8.97722 13.3607 7.42276 11.782 5.86831H11.7941Z" fill="#333333"/>
</svg>
