<svg width="63" height="59" viewBox="0 0 63 59" fill="none" xmlns="http://www.w3.org/2000/svg">
<path d="M58.1199 21.6491C58.5502 20.5799 58.8599 19.7678 59.1987 18.9713C59.7051 17.7834 60.7158 17.2907 61.7616 17.6918C62.8561 18.1125 63.2884 19.1972 62.8015 20.428C61.5746 23.5342 60.3438 26.6385 59.0799 29.7291C58.4139 31.3591 56.9085 31.6785 55.666 30.4516C53.146 27.9686 50.6494 25.4622 48.1605 22.948C47.255 22.0327 47.2238 20.9012 48.0164 20.0911C48.8305 19.2576 49.9853 19.2985 50.9435 20.2411C52.073 21.3492 53.1714 22.4884 54.2834 23.614C54.3827 23.5673 54.4839 23.5186 54.5833 23.4719C54.1899 22.2469 53.8685 20.9928 53.3895 19.8029C47.3718 4.86392 29.1865 -0.723334 15.7996 8.23887C1.37675 17.8924 0.817831 39.0457 14.7129 49.4257C24.6956 56.8844 38.248 56.1347 47.3173 47.6223C48.624 46.3974 49.7185 46.2513 50.6066 47.1861C51.4926 48.1189 51.3193 49.2582 49.995 50.4442C41.3581 58.1873 31.391 60.5515 20.4463 56.7793C9.55023 53.0207 2.95614 45.0906 1.10995 33.6844C-1.51328 17.464 9.85793 2.43934 26.0919 0.264027C40.0104 -1.60164 53.5005 6.98081 57.7109 20.3793C57.816 20.7162 57.9271 21.0492 58.1199 21.6491Z" fill="#7FBB27"/>
<path d="M22.1405 23.3921C22.1405 21.9218 22.1016 20.5644 22.1483 19.2109C22.2827 15.3452 25.1922 12.2293 29.0696 11.7522C32.7931 11.2945 36.4135 13.7366 37.4125 17.4368C37.6131 18.1788 37.6676 18.9694 37.6988 19.7426C37.7455 20.9052 37.7105 22.0737 37.7105 23.3921C38.3239 23.3921 38.8926 23.3804 39.4593 23.3941C40.8245 23.4291 41.5937 24.1555 41.5976 25.5032C41.6132 30.5958 41.6132 35.6884 41.5976 40.781C41.5937 42.0819 40.8284 42.855 39.5333 42.8589C33.1106 42.8745 26.6879 42.8764 20.2651 42.857C19.0285 42.8531 18.2515 42.0702 18.2476 40.8335C18.2281 35.7078 18.2281 30.5841 18.2476 25.4584C18.2515 24.1711 19.0324 23.4369 20.3314 23.396C20.8805 23.3785 21.4297 23.3941 22.1425 23.3941L22.1405 23.3921ZM26.0452 23.322H33.7902C33.7902 21.8984 33.8623 20.5391 33.7727 19.1914C33.6383 17.133 31.9051 15.5925 29.8817 15.614C27.8583 15.6354 26.1737 17.2011 26.0588 19.2693C25.9848 20.5897 26.0452 21.9179 26.0452 23.3239V23.322Z" fill="#7FBB27"/>
</svg>
