<svg width="12" height="15" viewBox="0 0 12 15" fill="none" xmlns="http://www.w3.org/2000/svg">
<path d="M1.23994 7.17C1.23994 6.58 1.23994 6.01 1.23994 5.44C1.23994 4.87 1.30994 4.31 1.52994 3.78C2.76994 0.780003 6.32994 0.190003 8.41994 2.09C9.41994 2.99 9.91994 4.11 9.90994 5.45C9.90994 5.95 9.90994 6.44 9.90994 6.94C9.90994 7.02 9.90994 7.09 9.90994 7.18C10.0499 7.18 10.1599 7.19 10.2699 7.2C10.7799 7.24 11.1299 7.6 11.1399 8.12C11.1399 8.52 11.1399 8.91 11.1399 9.31C11.1399 10.72 11.1399 12.13 11.1399 13.54C11.1399 14.26 10.7799 14.61 10.0699 14.61C7.06994 14.61 4.05994 14.61 1.05994 14.61C0.359939 14.61 -6.10502e-05 14.25 -6.10502e-05 13.55C-6.10502e-05 11.81 0.0199389 10.07 -6.10502e-05 8.32C-0.010061 7.62 0.389939 7.14 1.10994 7.19C1.13994 7.19 1.17994 7.19 1.24994 7.18L1.23994 7.17ZM8.01994 7.17C8.01994 7.11 8.03994 7.06 8.03994 7.01C8.03994 6.42 8.03994 5.83 8.03994 5.25C8.01994 4.02 7.00994 2.95 5.80994 2.87C4.45994 2.78 3.30994 3.64 3.14994 4.92C3.06994 5.53 3.11994 6.15 3.10994 6.76C3.10994 6.89 3.10994 7.02 3.10994 7.17H8.02994H8.01994Z" fill="#606060"/>
</svg>
