<svg width="14" height="16" viewBox="0 0 14 16" fill="none" xmlns="http://www.w3.org/2000/svg">
<path d="M10.2299 3.65C10.2299 5.67 8.58993 7.3 6.57993 7.3C4.55993 7.3 2.92993 5.66 2.92993 3.65C2.92993 1.63 4.56993 0 6.57993 0C8.58993 0 10.2299 1.64 10.2299 3.65Z" fill="#606060"/>
<path d="M11.8 10.4999C11.05 9.89993 9.96 9.27993 8.46 8.92993H4.69C3.19 9.27993 2.1 9.89993 1.35 10.4999C0.5 11.1899 0 12.2399 0 13.3399V15.4499H13.15V13.3399C13.15 12.2399 12.65 11.1899 11.79 10.5099L11.8 10.4999Z" fill="#606060"/>
</svg>
